<svg width="38" height="38" viewBox="0 0 240 240" fill="none" xmlns="http://www.w3.org/2000/svg">
<rect width="240" height="240" rx="40" fill="#0000A9" fill-opacity="0.8"/>
<path d="M81.5625 199H56.0742V103.902H81.5625V199ZM54.5801 79.293C54.5801 75.4844 55.8398 72.3496 58.3594 69.8887C60.9375 67.4277 64.4238 66.1973 68.8184 66.1973C73.1543 66.1973 76.6113 67.4277 79.1895 69.8887C81.7676 72.3496 83.0566 75.4844 83.0566 79.293C83.0566 83.1602 81.7383 86.3242 79.1016 88.7852C76.5234 91.2461 73.0957 92.4766 68.8184 92.4766C64.541 92.4766 61.084 91.2461 58.4473 88.7852C55.8691 86.3242 54.5801 83.1602 54.5801 79.293ZM125.947 103.902L126.738 114.889C133.535 106.393 142.646 102.145 154.072 102.145C164.15 102.145 171.65 105.104 176.572 111.021C181.494 116.939 184.014 125.787 184.131 137.564V199H158.73V138.18C158.73 132.789 157.559 128.893 155.215 126.49C152.871 124.029 148.975 122.799 143.525 122.799C136.377 122.799 131.016 125.846 127.441 131.939V199H102.041V103.902H125.947Z" fill="white"/>
</svg>
